<svg width="100" height="100" viewBox="0 0 100 100" fill="none" xmlns="http://www.w3.org/2000/svg">
<path d="M0 0H45.9016V9.83615H0V0ZM0 18.0327H45.9016V27.8686H0V18.0327ZM0 36.0655V45.9015H45.9016V36.0655H0ZM90.1637 0H99.9998V45.9017H90.1637V0ZM72.1309 0H81.9668V45.9017H72.1309V0ZM54.0982 0V45.9015H63.9342V0H54.0982ZM54.0982 90.1639H99.9998V100H54.0982V90.1639ZM54.0982 72.131H99.9998V81.967H54.0982V72.131ZM86.0656 54.0983H54.0982V63.9343H100V54.0983H86.0656ZM0 54.0983H9.83613V100H0V54.0983ZM18.0328 54.0983H27.8688V100H18.0328V54.0983ZM36.0654 54.0983V99.9998H45.9016V54.0983H36.0654Z" fill="white"/>
</svg>
